<?xml version="1.0" encoding="UTF-8" standalone="no"?>
<!-- Uploaded to: SVG Repo, www.svgrepo.com, Generator: SVG Repo Mixer Tools -->

<svg
   fill="#000000"
   version="1.1"
   id="Capa_1"
   width="800px"
   height="800px"
   viewBox="0 0 31.216 31.216"
   xml:space="preserve"
   sodipodi:docname="music.svg"
   inkscape:version="1.3 (0e150ed6c4, 2023-07-21)"
   xmlns:inkscape="http://www.inkscape.org/namespaces/inkscape"
   xmlns:sodipodi="http://sodipodi.sourceforge.net/DTD/sodipodi-0.dtd"
   xmlns="http://www.w3.org/2000/svg"
   xmlns:svg="http://www.w3.org/2000/svg"><defs
   id="defs1" /><sodipodi:namedview
   id="namedview1"
   pagecolor="#505050"
   bordercolor="#ffffff"
   borderopacity="1"
   inkscape:showpageshadow="0"
   inkscape:pageopacity="0"
   inkscape:pagecheckerboard="1"
   inkscape:deskcolor="#505050"
   inkscape:zoom="0.97125"
   inkscape:cx="399.4852"
   inkscape:cy="400"
   inkscape:window-width="1920"
   inkscape:window-height="991"
   inkscape:window-x="-9"
   inkscape:window-y="-9"
   inkscape:window-maximized="1"
   inkscape:current-layer="Capa_1" />&#10;<g
   id="g1"
   style="fill:#ffffff">&#10;	<path
   d="M30.854,0L11.057,2.837v18.034c-1.089-0.596-2.405-0.94-3.838-0.94c-3.845,0-6.856,2.479-6.856,5.642   c0,3.164,3.012,5.644,6.856,5.644c3.844,0,6.856-2.479,6.856-5.644c0-0.104-0.019-13.353-0.019-13.353l13.797-2.213v8.487   c-1.1-0.613-2.434-0.971-3.891-0.971c-3.844,0-6.855,2.479-6.855,5.642c0,3.165,3.012,5.644,6.855,5.644   c3.686,0,6.598-2.279,6.832-5.255C30.829,23.428,30.854,0,30.854,0z M7.218,28.215c-2.13,0-3.856-1.184-3.856-2.643   s1.727-2.643,3.856-2.643c2.066,0,3.74,1.116,3.838,2.516v0.127c0,0.025,0.006,0.049,0.008,0.074   C11.004,27.07,9.311,28.215,7.218,28.215z M14.057,9.18V5.438L27.854,3.46v3.507L14.057,9.18z M23.964,25.809   c-2.129,0-3.856-1.184-3.856-2.645c0-1.459,1.728-2.641,3.856-2.641s3.854,1.182,3.854,2.641   C27.818,24.626,26.093,25.809,23.964,25.809z"
   id="path1"
   style="fill:#ffffff" />&#10;</g>&#10;</svg>
