<?xml version="1.0" encoding="UTF-8" standalone="no"?>
<!-- Created with Inkscape (http://www.inkscape.org/) -->

<svg
   width="71.496254mm"
   height="71.458267mm"
   viewBox="0 0 71.496254 71.458267"
   version="1.1"
   id="svg1"
   xml:space="preserve"
   xmlns:inkscape="http://www.inkscape.org/namespaces/inkscape"
   xmlns:sodipodi="http://sodipodi.sourceforge.net/DTD/sodipodi-0.dtd"
   xmlns="http://www.w3.org/2000/svg"
   xmlns:svg="http://www.w3.org/2000/svg"><sodipodi:namedview
     id="namedview1"
     pagecolor="#505050"
     bordercolor="#ffffff"
     borderopacity="1"
     inkscape:showpageshadow="0"
     inkscape:pageopacity="0"
     inkscape:pagecheckerboard="1"
     inkscape:deskcolor="#505050"
     inkscape:document-units="mm" /><defs
     id="defs1" /><g
     inkscape:label="Layer 1"
     inkscape:groupmode="layer"
     id="layer1"
     transform="translate(-74.757265,-159.98196)"><g
       id="g4"><path
         id="path2"
         style="fill:none;stroke:#ffffff;stroke-width:3.046;stroke-dasharray:none;stroke-opacity:1"
         d="m 76.432027,198.86021 a 34.305984,34.305984 0 0 0 34.073373,31.05702 34.305984,34.305984 0 0 0 34.07337,-31.05702 H 117.2838 a 7.6447878,7.6447878 0 0 1 -6.7784,4.11396 7.6447878,7.6447878 0 0 1 -6.76031,-4.11396 z" /><path
         id="path3"
         style="fill:#ffffff;fill-opacity:1;stroke:#ffffff;stroke-width:2.64583;stroke-opacity:1"
         d="M 110.46716,161.30488 A 34.305984,34.305984 0 0 0 76.393787,192.3619 h 27.149243 a 7.6447878,7.6447878 0 0 1 6.96237,-4.4912 7.6447878,7.6447878 0 0 1 6.96185,4.4912 h 27.14925 a 34.305984,34.305984 0 0 0 -34.14934,-31.05702 z" /></g></g></svg>
