<?xml version="1.0" encoding="UTF-8" standalone="no"?>
<!-- Created with Inkscape (http://www.inkscape.org/) -->

<svg
   width="119.98724mm"
   height="121.04688mm"
   viewBox="0 0 119.98724 121.04688"
   version="1.1"
   id="svg1"
   xml:space="preserve"
   xmlns:inkscape="http://www.inkscape.org/namespaces/inkscape"
   xmlns:sodipodi="http://sodipodi.sourceforge.net/DTD/sodipodi-0.dtd"
   xmlns="http://www.w3.org/2000/svg"
   xmlns:svg="http://www.w3.org/2000/svg"><sodipodi:namedview
     id="namedview1"
     pagecolor="#505050"
     bordercolor="#ffffff"
     borderopacity="1"
     inkscape:showpageshadow="0"
     inkscape:pageopacity="0"
     inkscape:pagecheckerboard="1"
     inkscape:deskcolor="#505050"
     inkscape:document-units="mm" /><defs
     id="defs1" /><g
     inkscape:label="Layer 1"
     inkscape:groupmode="layer"
     id="layer1"
     transform="translate(-61.346067,-67.842855)"><path
       style="fill:#ffffff"
       d="m 85.554144,167.65879 v -21.23094 l -7.011965,7.00822 -7.011965,7.00822 -5.092075,-5.09208 -5.092074,-5.09207 30.029125,-30.03 30.02913,-30.029998 29.96449,29.963618 c 16.48047,16.48 29.9645,30.05793 29.9645,30.17319 0,0.27459 -9.69773,9.97778 -9.97217,9.97778 -0.11584,0 -3.33683,-3.12455 -7.15776,-6.94344 l -6.94715,-6.94344 v 21.23094 21.23094 h -7.27605 -7.27604 V 160.379 131.86827 l -7.01146,-7.00771 -7.01146,-7.00772 v 35.51845 35.51844 h -7.27603 -7.27604 v -35.51844 -35.51845 l -7.01146,7.00772 -7.01146,7.00771 v 28.51073 28.51073 h -7.276044 -7.276042 z m -2.183891,-50.21235 c -1.64942,-0.41678 -3.501744,-1.4883 -4.776545,-2.7631 l -1.206224,-1.20622 -0.688943,-1.45631 c -0.378919,-0.80096 -0.814223,-2.134 -0.967343,-2.96231 l -0.2784,-1.506 0.313222,-1.59858 c 0.172271,-0.87921 0.596324,-2.19844 0.942338,-2.9316 l 0.629117,-1.33303 1.264064,-1.26447 1.264064,-1.26446 1.597926,-0.76287 1.597926,-0.76286 1.716289,-0.17584 1.71629,-0.17584 1.704067,0.43656 1.704067,0.43656 1.251606,0.80316 c 1.67796,1.07674 3.0446,2.63618 3.889608,4.43832 l 0.697221,1.48696 v 2.64584 2.64583 l -0.709098,1.51291 -0.709098,1.5129 -1.247495,1.33367 -1.247496,1.33368 -1.654756,0.81463 -1.654756,0.81464 -2.077193,0.0994 -2.077192,0.0994 z m 71.467997,0.0218 c -0.52951,-0.10325 -1.63448,-0.52758 -2.45548,-0.94297 l -1.49273,-0.75525 -1.20104,-1.28401 -1.20104,-1.28401 -0.70768,-1.5129 -0.70768,-1.51291 0.005,-2.64583 0.005,-2.64583 0.71407,-1.46507 c 0.92146,-1.89057 2.24535,-3.42378 3.83991,-4.447 l 1.27221,-0.81638 1.71053,-0.43821 1.71053,-0.43822 1.63378,0.15256 1.63377,0.15257 1.67398,0.76999 1.67398,0.76999 1.29238,1.29238 1.29238,1.29239 0.79865,1.71979 0.79865,1.71979 0.008,2.38125 0.008,2.38125 -0.82618,1.78776 -0.82618,1.78775 -1.31496,1.28081 -1.31495,1.2808 -1.2034,0.56567 c -2.18755,1.02827 -4.46258,1.31317 -6.81829,0.85384 z M 119.59292,87.811092 c -0.7057,-0.12125 -1.90936,-0.52685 -2.6748,-0.90135 l -1.3917,-0.68089 -1.37441,-1.45324 -1.37441,-1.45324 -0.62733,-1.38976 -0.62733,-1.38976 -0.1757,-1.46624 -0.17571,-1.46623 0.28208,-1.52589 c 0.36784,-1.98984 1.38838,-4.00227 2.72534,-5.37421 l 1.07325,-1.10132 1.73976,-0.88306 1.73976,-0.88305 h 2.65965 2.65965 l 1.5129,0.70909 1.5129,0.7091 1.33817,1.2517 1.33817,1.2517 0.84633,1.74337 0.84633,1.74337 0.007,2.51354 0.007,2.51354 -0.7101,1.51508 c -2.10992,4.50181 -6.4268,6.83034 -11.15633,6.01775 z"
       id="path1" /></g></svg>
