<svg width="170.501" height="88.2" viewBox="0 0 170.501 88.2" xmlns="http://www.w3.org/2000/svg"><g id="svgGroup" stroke-linecap="round" fill-rule="evenodd" font-size="9pt" stroke="#ffffff" stroke-width="0.25mm" fill="#ffffff" style="stroke:#ffffff;stroke-width:0.25mm;fill:#ffffff"><path d="M 48.501 7.6 L 43.301 13 A 25.244 25.244 0 0 0 39.83 10.342 A 20.167 20.167 0 0 0 36.651 8.7 A 18.972 18.972 0 0 0 31.756 7.466 A 23.948 23.948 0 0 0 28.901 7.3 A 17.291 17.291 0 0 0 15.975 12.803 A 22.457 22.457 0 0 0 14.901 14 Q 9.301 20.7 9.301 35.5 Q 9.301 50.2 13.851 57 A 14.754 14.754 0 0 0 24.575 63.599 A 21.95 21.95 0 0 0 27.601 63.8 A 27.703 27.703 0 0 0 35.741 62.637 A 24.457 24.457 0 0 0 40.701 60.5 L 40.701 39.6 L 27.201 39.6 L 26.201 32.3 L 49.401 32.3 L 49.401 65.1 A 52.905 52.905 0 0 1 41.572 68.691 A 46.914 46.914 0 0 1 38.951 69.55 A 36.401 36.401 0 0 1 33.124 70.737 Q 30.286 71.089 27.106 71.1 A 59.346 59.346 0 0 1 26.901 71.1 Q 14.301 71.1 7.151 62.05 A 29.312 29.312 0 0 1 2.39 52.91 Q 1.046 48.808 0.458 43.812 A 71.225 71.225 0 0 1 0.001 35.5 Q 0.001 25.264 3.226 17.768 A 32.107 32.107 0 0 1 4.001 16.1 Q 8.001 8.1 14.601 4.05 Q 21.201 0 28.901 0 Q 35.401 0 39.801 1.8 A 25.123 25.123 0 0 1 44.447 4.334 Q 46.453 5.704 48.438 7.542 A 40.91 40.91 0 0 1 48.501 7.6 Z M 83.701 70 L 65.101 70 L 65.101 1.1 L 82.101 1.1 A 45.167 45.167 0 0 1 89.476 1.67 Q 95.207 2.619 99.551 5.15 A 13.374 13.374 0 0 1 106.208 14.907 A 21.042 21.042 0 0 1 106.501 18.5 A 16.843 16.843 0 0 1 105.958 22.888 A 12.339 12.339 0 0 1 102.801 28.45 A 18.441 18.441 0 0 1 94.449 33.282 A 22.284 22.284 0 0 1 93.601 33.5 Q 108.54 36.037 109.442 48.726 A 23.593 23.593 0 0 1 109.501 50.4 A 22.684 22.684 0 0 1 108.782 56.3 A 14.839 14.839 0 0 1 102.051 65.4 A 29.731 29.731 0 0 1 92.578 69.12 Q 88.726 69.945 84.294 69.997 A 50.994 50.994 0 0 1 83.701 70 Z M 120.501 88.2 L 120.501 80.8 L 170.501 80.8 L 170.501 88.2 L 120.501 88.2 Z M 85.501 37.6 L 73.801 37.6 L 73.801 62.8 L 85.201 62.8 A 25.432 25.432 0 0 0 90.178 62.338 A 18.124 18.124 0 0 0 95.901 60.2 A 8.383 8.383 0 0 0 99.682 55.271 Q 100.146 53.783 100.262 51.956 A 19.828 19.828 0 0 0 100.301 50.7 A 21.203 21.203 0 0 0 100.022 47.133 Q 99.251 42.63 96.351 40.5 Q 93.127 38.134 87.939 37.698 A 29.183 29.183 0 0 0 85.501 37.6 Z M 84.101 8.2 L 73.801 8.2 L 73.801 30.4 L 84.901 30.4 A 20.609 20.609 0 0 0 89.693 29.893 Q 96.136 28.347 97.329 22.088 A 16.505 16.505 0 0 0 97.601 19 A 14.594 14.594 0 0 0 97.292 15.894 Q 96.875 13.983 95.896 12.579 A 7.699 7.699 0 0 0 94.101 10.75 A 11.772 11.772 0 0 0 90.632 9.058 Q 89.036 8.562 87.102 8.353 A 27.94 27.94 0 0 0 84.101 8.2 Z" vector-effect="non-scaling-stroke"/></g></svg>